<svg xmlns="http://www.w3.org/2000/svg" viewBox="0 0 511.999 511.999" style="enable-background:new 0 0 511.999 511.999" xml:space="preserve"><path style="fill:#8fe3f9" d="M481.782 358.514c-38.831 85.38-124.687 144.922-224.632 145.387C120.236 504.536 8.734 394.063 8.099 257.15 7.464 120.237 117.935 8.734 254.85 8.099c136.913-.636 248.416 109.837 249.051 246.75.128 27.535-4.239 54.04-12.408 78.823"/><path style="fill:#5dceed" d="M396.253 425.692c-138.198 0-250.232-112.032-250.232-250.233 0-64.354 24.303-123.027 64.218-167.363C95.167 29.724 8.096 130.727 8.096 252.082c0 137.122 111.16 248.282 248.282 248.282 71.204 0 135.399-29.983 180.672-78.002a251.873 251.873 0 0 1-40.797 3.33z"/><path style="fill:#00a8e2" d="m329.032 219.059-50.868-39.876a36.053 36.053 0 0 0-22.168-7.669 36.056 36.056 0 0 0-22.156 7.657l-50.871 39.888c-12.463 9.767-17.073 26.862-11.202 41.571l22.831 57.242c5.478 13.738 18.573 22.612 33.358 22.612h56.083c14.786 0 27.881-8.874 33.358-22.608l22.832-57.242c5.872-14.714 1.266-31.807-11.197-41.575zM66.896 124.963c-2.245-6.14-6.108-11.371-10.963-15.35C25.865 150.637 8.096 201.24 8.096 255.999c0 4.468.124 8.907.357 13.317a35.541 35.541 0 0 0 13.304-5.437l53.658-36.056a36.056 36.056 0 0 0 14.128-18.705 36.077 36.077 0 0 0-.44-23.453l-22.207-60.702zM445.1 124.963l-22.207 60.702a36.077 36.077 0 0 0-.44 23.453 36.052 36.052 0 0 0 14.128 18.705l53.658 36.056a35.572 35.572 0 0 0 13.308 5.44c.232-4.412.357-8.849.357-13.319 0-54.76-17.771-105.364-47.836-146.387-4.858 3.976-8.723 9.208-10.968 15.35zM255.995 8.096c-26.467 0-51.959 4.165-75.876 11.846 1.67 6.75 5.497 12.961 11.202 17.433l45.053 35.322a31.9 31.9 0 0 0 19.621 6.78 31.921 31.921 0 0 0 19.632-6.789l45.051-35.318c5.702-4.47 9.528-10.679 11.198-17.429-23.916-7.681-49.409-11.845-75.881-11.845zM165.333 415.061a31.896 31.896 0 0 0-11.887-17.019 31.932 31.932 0 0 0-19.873-6.046l-57.206 2.089c-7.72.283-14.883 3.411-20.344 8.431 30.425 41.451 73.42 73.094 123.378 89.307 2.989-6.685 3.715-14.364 1.622-21.702l-15.69-55.06zM378.417 391.991a31.916 31.916 0 0 0-19.859 6.047 31.93 31.93 0 0 0-11.892 17.031l-15.69 55.055c-2.095 7.338-1.369 15.012 1.624 21.699 49.953-16.215 92.953-47.856 123.374-89.307-5.461-5.019-12.621-8.148-20.344-8.431l-57.213-2.094z"/><path style="fill:#231f20" d="M511.658 269.081c.092-1.832.165-3.666.218-5.503.012-.412.027-.824.037-1.234.052-2.113.086-4.226.086-6.344 0-1.956-.028-3.908-.071-5.857-.013-.606-.036-1.21-.053-1.815a264.15 264.15 0 0 0-.249-6.115 248.45 248.45 0 0 0-.248-4.066c-.041-.606-.079-1.212-.124-1.817a257.167 257.167 0 0 0-.471-5.497c-.01-.097-.016-.195-.026-.293a255.804 255.804 0 0 0-.628-5.692c-.079-.658-.168-1.315-.253-1.973-.16-1.238-.325-2.475-.502-3.71a259.771 259.771 0 0 0-.88-5.668c-.137-.824-.272-1.648-.417-2.47-.19-1.074-.393-2.144-.597-3.215a267.783 267.783 0 0 0-1.059-5.279c-.146-.691-.285-1.383-.437-2.073-.269-1.221-.555-2.435-.841-3.651-.125-.531-.248-1.063-.378-1.594a268.48 268.48 0 0 0-1.241-4.895c-11.396-43.238-34.047-82.883-66.505-115.341C393.456 31.417 336.957 5.499 276.184.789c-.082-.006-.164-.015-.246-.022C274.92.69 273.9.626 272.88.56c-.96-.063-1.92-.124-2.881-.176a272.916 272.916 0 0 0-6.194-.257c-.683-.021-1.364-.044-2.049-.059-1.911-.04-3.825-.068-5.74-.068H255.996a263.7 263.7 0 0 0-5.766.07c-.67.015-1.339.038-2.008.058a250.92 250.92 0 0 0-9.171.438c-.99.064-1.98.125-2.967.201-.208.016-.416.037-.624.053-60.636 4.782-117.002 30.682-160.48 74.16-32.468 32.468-55.122 72.128-66.515 115.382l-.229.869a252.661 252.661 0 0 0-1.008 4.01c-.122.503-.239 1.008-.358 1.512a233.374 233.374 0 0 0-.857 3.722c-.137.623-.262 1.249-.395 1.873-.39 1.838-.761 3.682-1.111 5.531a250.488 250.488 0 0 0-.581 3.133c-.147.832-.283 1.668-.422 2.502a278.7 278.7 0 0 0-.528 3.294c-.12.787-.237 1.574-.351 2.362-.176 1.226-.34 2.455-.498 3.684-.085.666-.176 1.331-.256 1.998-.228 1.89-.44 3.783-.627 5.681-.011.107-.018.214-.028.321-.176 1.82-.33 3.643-.468 5.471-.045.606-.083 1.211-.124 1.818a249.13 249.13 0 0 0-.497 10.181c-.017.605-.04 1.209-.053 1.815a248.77 248.77 0 0 0-.074 5.86c0 2.263.033 4.521.092 6.775.003.12.01.24.013.359.059 2.171.146 4.336.259 6.496l.004.112.005.052c3.036 57.541 25.03 111.548 62.974 154.787a262.945 262.945 0 0 0 2.66 3.006l.421.462c15.557 17.187 33.212 32.055 52.585 44.319.447.284.899.559 1.347.841a236.595 236.595 0 0 0 6.166 3.739l.508.297c38.722 22.658 82.911 34.753 128.965 34.753 32.123 0 63.604-5.962 93.057-17.454l.451-.175c1.192-.467 2.378-.946 3.563-1.431.451-.185.904-.367 1.354-.554.731-.304 1.457-.616 2.186-.927a253.7 253.7 0 0 0 80.87-54.871c.259-.261.517-.525.775-.787.68-.692 1.361-1.384 2.035-2.083a256.117 256.117 0 0 0 48.368-70.768 8.096 8.096 0 0 0-14.708-6.772 238.323 238.323 0 0 1-19.867 35.008c-5.539-3.151-11.763-4.956-18.157-5.189l-57.205-2.093c-7.159-.261-14.345 1.461-20.618 4.875l-38.645-53.194a8.088 8.088 0 0 0-2.217-2.075 44.262 44.262 0 0 0 7.678-12.631l22.831-57.241c3.066-7.682 3.792-15.893 2.443-23.715l67.251-21.849c3.391 6.602 8.428 12.316 14.62 16.473l53.656 36.054a43.327 43.327 0 0 0 9.318 4.743 238.662 238.662 0 0 1-11.585 56.853 8.096 8.096 0 0 0 5.106 10.248 8.092 8.092 0 0 0 10.246-5.107c7.295-21.793 11.582-44.43 12.812-67.471.003-.041.011-.08.013-.121.014-.222.017-.44.028-.662zm-255.662-197.7a23.763 23.763 0 0 1-14.626-5.056l-45.055-35.322a23.289 23.289 0 0 1-5.285-5.863 237.458 237.458 0 0 1 22.513-5.184l.103-.018a238.417 238.417 0 0 1 11.396-1.751l.836-.108a239.543 239.543 0 0 1 12.288-1.224c1.829-.135 3.662-.256 5.501-.35l.055-.002a242.044 242.044 0 0 1 6.772-.241c1.83-.041 3.663-.07 5.502-.07h.01a243.63 243.63 0 0 1 6.874.105c1.782.051 3.561.114 5.334.203l.128.005c1.824.093 3.641.213 5.455.347.432.032.863.066 1.293.099 1.778.14 3.552.295 5.319.474l.09.009c1.865.19 3.723.406 5.576.639.311.039.621.08.931.12 3.793.492 7.56 1.068 11.296 1.736l.22.04c7.61 1.368 15.097 3.1 22.441 5.171a23.297 23.297 0 0 1-5.282 5.859l-45.058 35.323a23.769 23.769 0 0 1-14.627 5.059zm-80.681-41.208c2.63 5.28 6.387 9.949 11.011 13.573l45.046 35.317a40.01 40.01 0 0 0 16.531 7.671v75.961c0 .501.052.988.138 1.463-6.966 1.289-13.595 4.242-19.2 8.64l-50.87 39.887a43.564 43.564 0 0 0-10.566 12.027L99.15 202.536a44.175 44.175 0 0 0-2.447-19.654l-22.207-60.701c-1.769-4.839-4.421-9.318-7.777-13.255 27.749-35.628 65.314-63.242 108.596-78.753zm-1.348 451.178c-42.206-15.412-78.904-42.361-106.26-77.013a23.344 23.344 0 0 1 8.955-2.162l57.216-2.089c5.272-.215 10.562 1.417 14.812 4.506a23.761 23.761 0 0 1 8.858 12.687l15.69 55.061a23.315 23.315 0 0 1 .729 9.01zm-20.077-92.575c-5.841-3.178-12.477-4.898-19.139-4.898-.494 0-.988.01-1.472.027l-57.207 2.089c-6.359.232-12.551 2.021-18.07 5.141-22.937-33.502-37.603-73.089-41.027-115.801a43.371 43.371 0 0 0 9.3-4.735l53.654-36.054c6.196-4.159 11.235-9.874 14.626-16.477l67.25 21.85c-1.349 7.822-.623 16.033 2.443 23.712l22.831 57.242a44.303 44.303 0 0 0 7.299 12.18l-40.488 55.724zM16.264 250.407c.011-.462.025-.924.038-1.386.046-1.615.106-3.227.185-4.833.012-.242.021-.484.033-.725 2.306-44.546 16.828-85.913 40.267-120.815a27.144 27.144 0 0 1 2.507 5.096l22.208 60.707c2.135 5.825 2.256 12.275.342 18.165s-5.798 11.033-10.945 14.487L17.24 257.162c-.338.228-.679.445-1.023.656-.004-.607-.023-1.209-.023-1.817-.002-1.871.026-3.734.07-5.594zm360.981 149.658c.289 0 .579.005.875.017l57.213 2.093c3.134.114 6.207.871 9.042 2.197-27.702 35.038-64.673 61.633-106.351 76.875a23.29 23.29 0 0 1 .738-8.904l15.692-55.064a23.796 23.796 0 0 1 8.86-12.692 23.9 23.9 0 0 1 13.931-4.522zm-31.501-.751a39.934 39.934 0 0 0-6.863 13.536l-15.688 55.051c-1.715 6.002-1.95 12.331-.756 18.451a238.42 238.42 0 0 1-66.436 9.456c-23.048 0-45.343-3.277-66.453-9.374 1.21-6.143.982-12.503-.737-18.532l-15.687-55.052a39.92 39.92 0 0 0-6.87-13.543l40.701-56.02c6.296 3.407 13.468 5.294 21.003 5.294h56.083c7.644 0 14.915-1.942 21.277-5.443a8.107 8.107 0 0 0 1.041 1.961l39.385 54.215zm-13.033-141.679-22.833 57.242c-4.242 10.637-14.384 17.511-25.839 17.511h-56.083c-11.452 0-21.596-6.875-25.839-17.516l-22.833-57.244c-4.546-11.391-.978-24.63 8.679-32.198l50.874-39.89a27.914 27.914 0 0 1 17.158-5.93 27.924 27.924 0 0 1 17.174 5.944l50.868 39.877c9.654 7.566 13.221 20.808 8.674 32.204zm1.316-44.948-50.862-39.873c-5.609-4.404-12.239-7.362-19.207-8.654a8.13 8.13 0 0 0 .139-1.465V86.731a40.035 40.035 0 0 0 16.526-7.672l45.051-35.318c4.622-3.623 8.379-8.292 11.008-13.571 43.283 15.51 80.849 43.124 108.595 78.752-3.357 3.937-6.01 8.416-7.779 13.256l-22.206 60.699a44.206 44.206 0 0 0-2.447 19.661l-68.253 22.175a43.587 43.587 0 0 0-10.565-12.026zm160.727 44.472-53.662-36.058a27.906 27.906 0 0 1-10.941-14.483 27.958 27.958 0 0 1 .343-18.17l22.208-60.704a26.916 26.916 0 0 1 2.508-5.097c23.44 34.903 37.963 76.27 40.269 120.818.012.241.022.483.033.724.079 1.607.138 3.218.185 4.833.013.462.028.923.038 1.386.043 1.86.071 3.723.071 5.594 0 .608-.014 1.214-.018 1.822a31.29 31.29 0 0 1-1.034-.665z"/><path style="fill:#231f20" d="M291.983 255.214h-71.966c-4.471 0-8.096 3.624-8.096 8.096s3.625 8.096 8.096 8.096h71.966c4.472 0 8.096-3.624 8.096-8.096s-3.624-8.096-8.096-8.096zM279.59 289.304h-47.173a8.096 8.096 0 0 0-8.096 8.096 8.096 8.096 0 0 0 8.096 8.096h47.173a8.096 8.096 0 0 0 8.096-8.096 8.096 8.096 0 0 0-8.096-8.096z"/></svg>